<svg id="Layer_1" data-name="Layer 1" xmlns="http://www.w3.org/2000/svg" viewBox="0 0 447.88 297.34"><defs><style>.cls-1{fill:#3c3c3b;}.cls-2{fill:#8597a3;}</style></defs><rect class="cls-1" x="175.73" width="10.76" height="166.07"/><path class="cls-1" d="M345.52,245A46.37,46.37,0,0,0,320,203.57a42.07,42.07,0,0,0-21.34-78.33H264V291.31h35.19A46.4,46.4,0,0,0,345.52,245ZM274.75,136h23.89a31.32,31.32,0,0,1,0,62.64H274.75Zm0,73.4h24.43a35.58,35.58,0,0,1,0,71.16H274.75Z" transform="translate(-59.65 -125.24)"/><path class="cls-1" d="M170.16,393.85h9.52c8.79,0,14.57,5.25,14.57,14.32s-5.78,14.41-14.57,14.41h-9.52Zm9.23,25.23c6.47,0,10.71-3.83,10.71-10.91s-4.28-10.82-10.71-10.82h-5.21v21.73Z" transform="translate(-59.65 -125.24)"/><path class="cls-1" d="M206,393.85h16.69v3.5H210v9h10.3v3.5H210v9.24h13.35v3.5H206Z" transform="translate(-59.65 -125.24)"/><path class="cls-1" d="M235,393.85h4l12.78,18.68c1.05,1.54,2.4,4.15,2.4,4.15h.08s-.29-2.57-.29-4.15V393.85h4v28.73h-4l-12.81-18.64c-1.06-1.59-2.41-4.19-2.41-4.19h-.08s.29,2.56.29,4.19v18.64h-4Z" transform="translate(-59.65 -125.24)"/><path class="cls-1" d="M272.9,393.85h4.24l6.59,15.54c.65,1.59,1.42,3.87,1.42,3.87h.08s.78-2.28,1.43-3.87l6.59-15.54h4.23l2.32,28.73h-4l-1.42-18.11c-.12-1.75,0-4.23,0-4.23h-.08s-.86,2.64-1.55,4.23L287,417.41H283.4l-5.69-12.94c-.66-1.55-1.55-4.31-1.55-4.31h-.08s0,2.56-.08,4.31l-1.39,18.11h-4Z" transform="translate(-59.65 -125.24)"/><path class="cls-1" d="M326.66,414.32H315.83L313,422.58h-4.15l10.33-28.73h4.23l10.34,28.73h-4.19Zm-5.41-16.53s-.65,2.61-1.14,4.08L316.89,411h8.71l-3.17-9.11c-.49-1.47-1.1-4.08-1.1-4.08Z" transform="translate(-59.65 -125.24)"/><path class="cls-1" d="M343.67,393.85h8.79a14.45,14.45,0,0,1,5.37.65c2.93,1.1,4.84,4,4.84,7.77A7.87,7.87,0,0,1,357.5,410v.09a7.76,7.76,0,0,1,.86,1.3l6.1,11.15H359.9l-6.06-11.44H347.7v11.44h-4Zm9.8,13.79c3.14,0,5.09-2,5.09-5.21a4.69,4.69,0,0,0-2.28-4.43,7.86,7.86,0,0,0-3.94-.65H347.7v10.29Z" transform="translate(-59.65 -125.24)"/><path class="cls-1" d="M375.45,393.85h4v12.08h4.27L391,393.85h4.44l-8.34,13.63v.08l8.87,15H391.4l-7.65-13.19h-4.27v13.19h-4Z" transform="translate(-59.65 -125.24)"/><path class="cls-2" d="M507.18,346.9a1.18,1.18,0,0,0-1.81-.09c-2.89,3-13.85,10.17-25.45,10.17-10.8,0-13.42-10.57-13.64-11.06a3.34,3.34,0,0,0-.59-1.07,2.14,2.14,0,0,0-3.28,0,37.62,37.62,0,0,1-26.81,11.43c-11.06,0-8-8-10.25-10.21-3.72-3.73-11.34.63-15.81,2.94-4.77,2.47-7.4,4.09-12.26,5.6-7.71,2.38-3.24-5.29-1.69-8.85.53-1.24-.1-3.21-1.53-3.05-13.38,1.5-29.63,14-36,14-1.81,0-2.51-.4-3.09-1,3.63-1.85,10.95-7.23,10.95-13.38a3.64,3.64,0,0,0-3.59-3.69c-7.65,0-14,9.44-14,14.58a12.9,12.9,0,0,0,.1,1.69A41.76,41.76,0,0,1,336,356.85a32.16,32.16,0,0,1-8.58-1.76c2.74-5.44,4.27-10.26,4.27-14,0-1.64-.68-4.82-3.43-4.82-8.31,0-25.95,21.5-38.62,21.5-7.19,0,1.79-10.59,1.79-13.9,0-1.5-1.05-3.09-2.59-2.29-4.07,2.53-7.19,2.83-8.65.85a7.77,7.77,0,0,0,1.32-3.27c0-3.47-3-5.93-5.61-3.36-1.19,1.19-3.28,3.65-.88,7.62-1.69,2.4-10.8,13.6-24.61,13.6-2.59,0-3.55-1.15-3.55-3.79,0-2.3,3.52-8.31,4.25-12.91,0-.08.05-.16.06-.24h0c0-.18.07-.35.09-.53.23-2.28-3.39-2.51-4.15-.39-.67,1.89-5.4,16.76-19.11,16.76-3.64,0,1.61-12.72,2.19-14.31.51-1.41-1.9-2.48-3.17-2.48-2.18,0-14.38,15.27-23.9,15.27-4,0-2.34-5.36-.94-8.6.92-2.13-1.23-3.92-2.77-2.46l-.65.64c-7.52-7-18.67-1.16-21.6,4.55-6,4.49-31.74,12.62-33.57,3.47,3.1-2.5,8.87-8.55,9.07-8.77l1.85-2.08c6.45-7.62,13.26-15.78,16.54-25.89.88-2.7.35-7.25-2.64-7.25-6.1,0-10.93,4.73-14.75,9.06a52.48,52.48,0,0,0-10.57,17.4c-1.36,3.92-3.14,9.67-3.43,14.93l0,0c-3.94,2.7-11.36,7.73-17.33,7.73-6.88,0-9.88-7.27-11.07-11.56l.08.6a2.68,2.68,0,0,0-1-2,2.8,2.8,0,0,0-3.77.42,61.59,61.59,0,0,1-11,8.53,45.19,45.19,0,0,1-12.12,5.33,21.71,21.71,0,0,1-6.34.71,19.41,19.41,0,0,1-6.18-1.15,12.65,12.65,0,0,1-5-3.35,15,15,0,0,1-1.81-2.55,18.7,18.7,0,0,1-1.37-3,1.6,1.6,0,0,0-3,1v0A23.19,23.19,0,0,0,61,353.76a18.61,18.61,0,0,0,2,3.34,16.71,16.71,0,0,0,6.28,4.83,23,23,0,0,0,7.55,1.77,26.13,26.13,0,0,0,7.65-.54,45,45,0,0,0,13.73-5.61,49.65,49.65,0,0,0,8.41-6.33,19.59,19.59,0,0,0,2.19,3.44c1.87,2.28,6.24,6.69,13.26,6.69,6.15,0,14.31-4.32,17.89-6.71a12.91,12.91,0,0,0,.43,1.68c1.44,3.87,5.63,4.61,9.79,4.61,6.53,0,17.38-2.72,25.63-7.27a7,7,0,0,0,1,3.48c3.74,6.25,14.43-.17,20-5.7-.43,3.48.46,7.11,4.76,7.11,10.71,0,21.53-11.72,21.06-10.63-2.8,6.61-3,11.85,3.71,11.85,9.86,0,16.79-7.61,16.67-6.63a7.31,7.31,0,0,0,2.22,6.56,8.91,8.91,0,0,0,6,2c13.11,0,21.91-11.49,26-15.7a10.49,10.49,0,0,0,8.42,2.18c-1.46,3.47-7.37,8.15-4.69,10.84,1.38,1.38,4.24,2.08,7.35,2.08,7.64,0,14.17-4.3,19.5-8s19.86-15,19.86-9.84c0,2.94-3.47,8.49-4.82,10.42l-1.42-.38-.17-.05a22.22,22.22,0,0,0-3.18-.62l-.42-.05-.51-.05-.58,0-.59,0h-.5c-2.23.05-3.09.93-3,2,.35,4.83,4.38,6.82,8,6.38a8.11,8.11,0,0,0,.86-.14,7.12,7.12,0,0,0,3.44-1.84c.09-.09.17-.19.26-.3l.24-.25a24.22,24.22,0,0,0,9.91,2.22A47.91,47.91,0,0,0,349.6,358c.63,1.11,2.54,2.78,6.88,2.78,6.6,0,22.17-10.44,34.09-13.32-2.5,4.4-5.32,9.75-.07,12.16a5.44,5.44,0,0,0,2.29.42c6,0,29.06-12.85,29.06-9.86,0,1.66-1.35,11.18,13.67,11.19,13.85,0,24.19-8.41,27-11.11.65,1.46,3.81,12,17.82,12,11.72,0,23.59-9.95,26.76-13.33l0,0A1.57,1.57,0,0,0,507.18,346.9ZM154.76,321.63c3.87-4.44,13.63-13.08,12.92-7.67-.49,3.83-3.18,7.76-5.24,10.68-8.24,11.68-16.2,20-18.59,21.81A49,49,0,0,1,154.76,321.63Zm26.47,33.7c-2.29-2.29,6-17.5,14.93-8.79C191.45,351.12,183.86,358,181.23,355.33Zm178.22-12.52a1.44,1.44,0,0,1,1.44,1.61c0,3.46-4.41,7.09-6.95,8.38C353.94,348.34,357,342.81,359.45,342.81Z" transform="translate(-59.65 -125.24)"/></svg>