<svg id="Lag_1" data-name="Lag 1" xmlns="http://www.w3.org/2000/svg" viewBox="0 0 834.83 451.9"><defs><style>.cls-1{fill:#222221;}</style></defs><path class="cls-1" d="M218.89,257.59h-6.32v88.78h6.32C236,346.37,246,339.14,246,302s-9.93-44.38-27.08-44.38" transform="translate(-2.75 -73.67)"/><path class="cls-1" d="M228.7,73.67c-124.79,0-225.95,101.16-225.95,226s101.16,226,226,226,226-101.16,226-226S353.48,73.67,228.7,73.67m-113,282.63H104.84V256.68h-.3L82,356.3H74.3L51.73,256.68h-.31V356.3H40.59V247.65H59.25l19,82.16h.3L97,247.65h18.66Zm62.14,0-6.47-32.2H143.66l-6.47,32.2H125.45l23.93-108.65h16.25L189.55,356.3Zm43.18,0H200.83V247.65H221c22.87,0,36.71,12.64,36.71,54.32S243.87,356.3,221,356.3Zm98.85,0-6.47-32.2H285.69l-6.47,32.2H267.49l23.92-108.65h16.25L331.59,356.3Zm85.77,0V256.68h-.31L382.74,356.3h-7.67L352.5,256.68h-.3V356.3H341.36V247.65H360l19,82.16h.3l18.51-82.16h18.66V356.3Z" transform="translate(-2.75 -73.67)"/><polyline class="cls-1" points="296.64 182.11 284.6 240.49 308.98 240.49 296.94 182.11 296.64 182.11"/><polyline class="cls-1" points="154.6 182.11 142.56 240.49 166.94 240.49 154.9 182.11 154.6 182.11"/><path class="cls-1" d="M505.62,274.44c-.75-9.33-5.71-12-9.92-12-6,0-9.33,3.91-9.33,10.69,0,18.5,37.92,27.38,37.92,56.87,0,17.91-12,27.84-29.5,27.84-17.3,0-27.23-13.84-28-30.09l17.76-2.56c.75,11,5.12,16.4,11.14,16.4,6.47,0,10.83-3.46,10.83-9.93,0-21.52-37.92-27.24-37.92-58.39,0-17.3,10.53-27.08,28.89-27.08,15.2,0,24.23,11,25.88,26.33l-17.76,2" transform="translate(-2.75 -73.67)"/><polyline class="cls-1" points="546.51 190.24 528.45 190.24 528.45 173.98 583.23 173.98 583.23 190.24 565.17 190.24 565.17 282.63 546.51 282.63 546.51 190.24"/><path class="cls-1" d="M597,274c0-15.35,9-27.84,28.59-27.84s28.6,12.49,28.6,27.84v56c0,15.35-9,27.84-28.6,27.84S597,345.31,597,330V274m18.66,55.52c0,8.13,2.41,12,9.93,12s9.93-3.91,9.93-12V274.44c0-8.13-2.4-12-9.93-12s-9.93,3.91-9.93,12Z" transform="translate(-2.75 -73.67)"/><polyline class="cls-1" points="668.53 282.63 668.53 173.98 687.19 173.98 687.19 266.37 716.53 266.37 716.53 282.63 668.53 282.63"/><polyline class="cls-1" points="735.98 190.21 717.92 190.21 717.92 173.96 772.69 173.96 772.69 190.21 754.63 190.21 754.63 282.6 735.98 282.6 735.98 190.21"/><polyline class="cls-1" points="785.47 190.21 785.47 173.96 834.83 173.96 834.83 191.71 800.53 266.35 834.83 266.35 834.83 282.6 781.26 282.6 781.26 264.85 816.02 190.21 785.47 190.21"/></svg>